<?xml version="1.0" encoding="utf-8"?>
<!-- Generator: Adobe Illustrator 27.5.0, SVG Export Plug-In . SVG Version: 6.00 Build 0)  -->
<svg version="1.1" id="Layer_1" xmlns="http://www.w3.org/2000/svg" xmlns:xlink="http://www.w3.org/1999/xlink" x="0px" y="0px"
	 viewBox="0 0 64.1 62.6" style="enable-background:new 0 0 64.1 62.6;" xml:space="preserve">
<style type="text/css">
	.st0{fill:#9D9D9C;}
	.st1{fill:none;stroke:#9D9D9C;stroke-miterlimit:10;stroke-dasharray:2;}
	.st2{fill:#020203;}
	.st3{fill:#FFFFFF;}
</style>
<g>
	<g>
		<path class="st0" d="M64.1,32c0,0.9-0.7,1.6-1.6,1.6c-0.9,0-1.6-0.7-1.6-1.6C60.8,16.2,47.9,3.3,32,3.3C16.2,3.3,3.3,16.2,3.3,32
			c0,0.9-0.7,1.6-1.6,1.6S0,32.9,0,32C0,14.4,14.4,0,32,0C49.7,0,64.1,14.4,64.1,32z"/>
	</g>
	<circle class="st1" cx="32" cy="32" r="30.2"/>
	<g>
		<path class="st2" d="M17.3,24h30.2v-0.1c0-0.6-0.5-1.1-1.1-1.1H17.1c-0.6,0-1.1,0.5-1.1,1.1v15.5c0,0.6,0.5,1.1,1.1,1.1h0.1V24z"
			/>
		<g>
			<polygon class="st2" points="50.6,43.7 18.5,43.7 18.5,43.7 18.5,25.3 18.5,25.3 50.6,25.3 50.6,25.3 			"/>
			<path class="st3" d="M48.6,38v-6.7c-2.2,0-4-1.8-4-4l0,0H24.5l0,0c0,2.2-1.8,4-4,4v6.5c2.2,0,4,1.8,4,4h20.2
				C44.8,39.6,46.5,38,48.6,38z"/>
		</g>
		<g>
			<path class="st2" d="M14.7,21.5h30.2v-0.1c0-0.6-0.5-1.1-1.1-1.1H14.6c-0.6,0-1.1,0.5-1.1,1.1v15.5c0,0.6,0.5,1.1,1.1,1.1h0.1
				V21.5z"/>
		</g>
	</g>
</g>
</svg>
