<?xml version="1.0" encoding="utf-8"?>
<!-- Generator: Adobe Illustrator 27.5.0, SVG Export Plug-In . SVG Version: 6.00 Build 0)  -->
<svg version="1.1" id="Layer_1" xmlns="http://www.w3.org/2000/svg" xmlns:xlink="http://www.w3.org/1999/xlink" x="0px" y="0px"
	 viewBox="0 0 64.1 62.6" style="enable-background:new 0 0 64.1 62.6;" xml:space="preserve">
<style type="text/css">
	.st0{fill:#9D9D9C;}
	.st1{fill:none;stroke:#9D9D9C;stroke-miterlimit:10;stroke-dasharray:2;}
	.st2{fill:#020203;}
	.st3{fill:#FFFFFF;}
</style>
<g>
	<g>
		<path class="st0" d="M64.1,32c0,0.9-0.7,1.6-1.6,1.6c-0.9,0-1.6-0.7-1.6-1.6C60.8,16.2,47.9,3.3,32,3.3C16.2,3.3,3.3,16.2,3.3,32
			c0,0.9-0.7,1.6-1.6,1.6S0,32.9,0,32C0,14.4,14.4,0,32,0C49.7,0,64.1,14.4,64.1,32z"/>
	</g>
	<circle class="st1" cx="32" cy="32" r="30.2"/>
	<g>
		<g>
			
				<rect x="22.1" y="20.9" transform="matrix(0.6214 0.7835 -0.7835 0.6214 36.2803 -17.3488)" class="st2" width="27.9" height="16"/>
			<path class="st3" d="M41.3,40.3l4.6-3.6c-1.2-1.5-0.9-3.7,0.6-4.8l0,0L35.5,18.1l0,0c-1.5,1.2-3.7,0.9-4.8-0.6L26.3,21
				c1.2,1.5,0.9,3.7-0.6,4.8l10.9,13.8C38.1,38.6,40.2,38.9,41.3,40.3z"/>
			<circle class="st2" cx="36.1" cy="28.9" r="4.7"/>
		</g>
		<g>
			<rect x="18.7" y="24.3" transform="matrix(0.9352 0.354 -0.354 0.9352 13.5369 -9.4845)" class="st2" width="27.9" height="16"/>
			<path class="st3" d="M43,39.4l2.1-5.5c-1.8-0.7-2.7-2.7-2-4.4l0,0l-16.4-6.2l0,0c-0.7,1.8-2.7,2.7-4.4,2l-2,5.3
				c1.8,0.7,2.7,2.7,2,4.4l16.4,6.2C39.4,39.6,41.3,38.8,43,39.4z"/>
			<circle class="st2" cx="32.7" cy="32.3" r="4.7"/>
		</g>
		<g>
			<rect x="15" y="28.9" class="st2" width="27.9" height="16"/>
			<path class="st3" d="M41.2,40v-5.9c-1.9,0-3.4-1.5-3.4-3.4l0,0H20.2l0,0c0,1.9-1.5,3.4-3.4,3.4v5.6c1.9,0,3.4,1.5,3.4,3.4h17.6
				C37.9,41.4,39.4,40,41.2,40z"/>
			<circle class="st2" cx="29" cy="37" r="4.7"/>
		</g>
	</g>
</g>
</svg>
