<?xml version="1.0" encoding="utf-8"?>
<!-- Generator: Adobe Illustrator 27.5.0, SVG Export Plug-In . SVG Version: 6.00 Build 0)  -->
<svg version="1.1" id="Layer_1" xmlns="http://www.w3.org/2000/svg" xmlns:xlink="http://www.w3.org/1999/xlink" x="0px" y="0px"
	 viewBox="0 0 64.1 62.6" style="enable-background:new 0 0 64.1 62.6;" xml:space="preserve">
<style type="text/css">
	.st0{fill:#9D9D9C;}
	.st1{fill:none;stroke:#9D9D9C;stroke-miterlimit:10;stroke-dasharray:2;}
</style>
<g>
	<path class="st0" d="M64.1,32c0,0.9-0.7,1.6-1.6,1.6c-0.9,0-1.6-0.7-1.6-1.6C60.8,16.2,47.9,3.3,32,3.3C16.2,3.3,3.3,16.2,3.3,32
		c0,0.9-0.7,1.6-1.6,1.6S0,32.9,0,32C0,14.4,14.4,0,32,0C49.7,0,64.1,14.4,64.1,32z"/>
</g>
<circle class="st1" cx="32" cy="32" r="30.2"/>
<g>
	<path d="M15.5,46.7c0.2-0.7,0.7-1,1.3-1c10.2,0,20.3,0,30.5,0c0.2,0,0.4,0,0.6,0.1c0.4,0.1,0.7,0.7,0.7,1.2c0,0.5-0.3,1-0.7,1.2
		c-0.2,0.1-0.4,0.1-0.6,0.1c-10.1,0-20.3,0-30.4,0c-0.6,0-1.1-0.2-1.3-1C15.5,47,15.5,46.9,15.5,46.7z"/>
	<path d="M17.5,43.6c0-0.6-0.1-1.2,0.3-1.7c0.4-0.5,0.9-0.3,1.4-0.4c0-4.1,0-8.3,0-12.4c1.8,0,3.6,0,5.5,0c0,4.1,0,8.3,0,12.4
		c1.6,0,3.1,0,4.7,0c0-4.1,0-8.3,0-12.4c1.8,0,3.6,0,5.4,0c0,4.1,0,8.3,0,12.4c1.6,0,3.1,0,4.7,0c0-4.1,0-8.3,0-12.4
		c1.8,0,3.6,0,5.4,0c0,4.1,0,8.3,0,12.4c0.6,0.1,1.2-0.1,1.5,0.6c0.2,0.5,0.1,0.9,0.2,1.4C36.9,43.6,27.2,43.6,17.5,43.6z"/>
	<path d="M32.1,27.1c-4.7,0-9.5,0-14.2,0c-0.5,0-0.9-0.1-1.2-0.8c-0.2-0.5-0.1-1.1,0.3-1.5c0.1-0.1,0.2-0.2,0.4-0.3
		c4.7-2.9,9.4-5.8,14.1-8.7c0.5-0.3,0.9-0.3,1.3,0c4.7,2.9,9.4,5.8,14.1,8.7c0.4,0.2,0.6,0.5,0.7,1c0.1,0.6-0.2,1.2-0.7,1.4
		c-0.2,0.1-0.4,0.1-0.6,0.1C41.5,27.1,36.8,27.1,32.1,27.1z"/>
</g>
</svg>
