<?xml version="1.0" encoding="utf-8"?>
<!-- Generator: Adobe Illustrator 27.5.0, SVG Export Plug-In . SVG Version: 6.00 Build 0)  -->
<svg version="1.1" id="Layer_1" xmlns="http://www.w3.org/2000/svg" xmlns:xlink="http://www.w3.org/1999/xlink" x="0px" y="0px"
	 viewBox="0 0 64.1 62.6" style="enable-background:new 0 0 64.1 62.6;" xml:space="preserve">
<style type="text/css">
	.st0{fill:#9D9D9C;}
	.st1{fill:#020203;}
	.st2{fill:#FFFFFF;}
	.st3{fill:none;stroke:#9D9D9C;stroke-miterlimit:10;stroke-dasharray:2;}
</style>
<g>
	<path class="st0" d="M64.1,32c0,0.9-0.7,1.6-1.6,1.6c-0.9,0-1.6-0.7-1.6-1.6C60.8,16.2,47.9,3.3,32,3.3C16.2,3.3,3.3,16.2,3.3,32
		c0,0.9-0.7,1.6-1.6,1.6S0,32.9,0,32C0,14.4,14.4,0,32,0C49.7,0,64.1,14.4,64.1,32z"/>
</g>
<g>
	<g>
		<path class="st1" d="M47.8,35.9c-2.3,0.8-2.9,1.1-6.1,2.6c-1.4,0.7-2.3,1.1-3.7,1.8c-1.7,0.8-2.9,1.2-4.8,1.3
			c-1.2,0.1-2.4,0-3.4-0.7c-1.6-1-0.8-1.8,0.4-1.9c1.9-0.2,8.6,0.8,8.2-2.2c-0.2-1.6-4.6-1.2-9.4-2.9c-1.1-0.4-2.1-1-3.3-1.3
			c-1.6-0.4-3.3-0.3-4.8,0.2c-0.2,0-0.3,0.1-0.4,0.1v12.1c1.2,0,2.6,0,3.8,0.4c1.5,0.4,3,1,4.5,1.5c1.3,0.4,2.9,1.2,4.3,1.1
			c1.4-0.1,2.6-0.9,3.7-1.6c3-1.8,5.9-3.6,8.9-5.5c1.1-0.7,1.9-1.1,2.9-1.9c0.5-0.4,1.7-1.2,1.8-1.8C50.5,35.8,49,35.5,47.8,35.9z"
			/>
		<path class="st1" d="M16.7,46.1L16.7,46.1c-1.6,0-2.9-1.3-2.9-2.9v-8.4c0-1.6,1.3-2.9,2.9-2.9h0c1.6,0,2.9,1.3,2.9,2.9v8.4
			C19.6,44.8,18.3,46.1,16.7,46.1z"/>
	</g>
	<g>
		<path class="st1" d="M31.7,25.6c1.7,0.4,3.9,0.6,6.2,0.6c2.4,0,4.6-0.2,6.2-0.6c0.8-0.2,1.4-0.4,1.8-0.6c0.1-0.1,0.2-0.1,0.3-0.2
			v-3c-0.5,0.3-1.1,0.5-2,0.7c-1.7,0.4-4,0.6-6.4,0.6s-4.7-0.2-6.4-0.6c-0.9-0.2-1.5-0.4-2-0.7v3c0.1,0.1,0.2,0.1,0.3,0.2
			C30.3,25.2,30.9,25.5,31.7,25.6z"/>
		<path class="st1" d="M44.3,26.4c-1.7,0.4-4,0.6-6.4,0.6s-4.7-0.2-6.4-0.6c-0.9-0.2-1.5-0.4-2-0.7v3c0.1,0.1,0.2,0.1,0.3,0.2
			c0.4,0.2,1,0.4,1.8,0.6c1.7,0.4,3.9,0.6,6.2,0.6c2.4,0,4.6-0.2,6.2-0.6c0.8-0.2,1.4-0.4,1.8-0.6c0.1-0.1,0.2-0.1,0.3-0.2v-3
			C45.8,26,45.2,26.2,44.3,26.4z"/>
		<path class="st1" d="M37.9,30.9c-2.4,0-4.7-0.2-6.4-0.6c-0.9-0.2-1.5-0.4-2-0.7v3c0.1,0.1,0.2,0.1,0.3,0.2c0.4,0.2,1,0.4,1.8,0.6
			c1.7,0.4,3.9,0.6,6.2,0.6c2.4,0,4.6-0.2,6.2-0.6c0.8-0.2,1.4-0.4,1.8-0.6c0.1-0.1,0.2-0.1,0.3-0.2v-3c-0.5,0.3-1.1,0.5-2,0.7
			C42.6,30.7,40.3,30.9,37.9,30.9z"/>
		<path class="st1" d="M44.4,18.9c-1.7,0.4-4,0.6-6.5,0.6c-2.4,0-4.7-0.2-6.5-0.6c-0.8-0.2-1.4-0.4-1.9-0.6v2.7
			c0.1,0.1,0.2,0.1,0.3,0.2c0.4,0.2,1,0.4,1.8,0.6c1.7,0.4,3.9,0.6,6.2,0.6c2.4,0,4.6-0.2,6.2-0.6c0.8-0.2,1.4-0.4,1.8-0.6
			c0.1-0.1,0.2-0.1,0.3-0.2v-2.7C45.8,18.5,45.2,18.7,44.4,18.9z"/>
		<ellipse class="st1" cx="37.9" cy="16.8" rx="8.4" ry="1.9"/>
		<g>
			<path class="st2" d="M37.7,18.2v-0.3c-0.5,0-0.9,0-1.1-0.1c-0.3,0-0.5-0.1-0.8-0.2c-0.2-0.1-0.3-0.2-0.4-0.4l0.9-0.1
				c0.1,0.1,0.2,0.3,0.4,0.3c0.3,0.1,0.6,0.1,0.9,0.2v-0.9c-0.4,0-0.8-0.1-1.2-0.1c-0.3,0-0.5-0.1-0.7-0.2c-0.2-0.1-0.2-0.2-0.2-0.3
				c0-0.2,0.2-0.3,0.7-0.5c0.3-0.1,0.8-0.1,1.4-0.1v-0.1h0.6v0.1c0.5,0,1,0.1,1.3,0.1c0.4,0.1,0.7,0.2,0.7,0.4l-1,0
				C39.3,16,39.1,16,39,15.9c-0.2-0.1-0.4-0.1-0.7-0.1v0.8c0.5,0,0.8,0.1,0.9,0.1c0.3,0,0.5,0.1,0.7,0.1c0.2,0.1,0.3,0.1,0.4,0.2
				c0.1,0.1,0.1,0.2,0.1,0.2c0,0.2-0.2,0.3-0.6,0.5c-0.4,0.1-0.9,0.2-1.6,0.2v0.3H37.7z M37.7,15.8c-0.4,0-0.7,0.1-0.9,0.1
				c-0.2,0.1-0.3,0.1-0.3,0.2c0,0.1,0.1,0.2,0.3,0.2c0.2,0.1,0.5,0.1,0.9,0.1V15.8z M38.2,17.7c0.4,0,0.7-0.1,0.9-0.1
				c0.2-0.1,0.4-0.2,0.4-0.3c0-0.1-0.1-0.2-0.3-0.2c-0.2-0.1-0.5-0.1-1-0.2V17.7z"/>
		</g>
	</g>
</g>
<circle class="st3" cx="32" cy="32" r="30.2"/>
</svg>
